<?xml version="1.0" encoding="UTF-8" standalone="no"?>
<!-- Created with Inkscape (http://www.inkscape.org/) -->
<svg id="svg2" xmlns:rdf="http://www.w3.org/1999/02/22-rdf-syntax-ns#" xmlns="http://www.w3.org/2000/svg" height="480.19" width="1170.3" version="1.1" xmlns:cc="http://creativecommons.org/ns#" xmlns:dc="http://purl.org/dc/elements/1.1/">
 <metadata id="metadata7">
  <rdf:RDF>
   <cc:Work rdf:about="">
    <dc:format>image/svg+xml</dc:format>
    <dc:type rdf:resource="http://purl.org/dc/dcmitype/StillImage"/>
    <dc:title/>
   </cc:Work>
  </rdf:RDF>
 </metadata>
 <g id="layer2" transform="translate(-19,81.78125)">
  <path id="rect2997" fill="#e0e0e0" d="m353.03-81.781s-0.25954,0.16676-0.29688,0.1875l-259.51,162.16h-74.156v31.438h67l266.97-191.12h836.25v-2.6562h-836.12-0.125z"/>
  <path id="rect2997-3" fill="#e4e4e4" d="m348.97-67.688,0,0.03125-4.9688,0-325,261.03,0,59.5,327-313.09,2.9688,0,0.0312,0,840.28,0,0-7.4688-840.31,0z"/>
  <path id="rect2997-3-6" fill="#f5f5f5" d="m273.5,26.406-254.5,254.5,0,117.5,260-364.56,0.9375,0,1.5625,0,907.78,0,0-7.4375-907.78,0-1.5625,0-6.4375,0z"/>
 </g>
</svg>
